<svg id="visual" viewBox="0 0 900 600" width="900" height="600" xmlns="http://www.w3.org/2000/svg" xmlns:xlink="http://www.w3.org/1999/xlink" version="1.1"><path d="M0 309L50 309L50 556L100 556L100 379L150 379L150 305L200 305L200 576L250 576L250 296L300 296L300 289L350 289L350 281L400 281L400 570L450 570L450 392L500 392L500 491L550 491L550 552L600 552L600 290L650 290L650 499L700 499L700 248L750 248L750 413L800 413L800 447L850 447L850 498L900 498L900 483L900 601L900 601L850 601L850 601L800 601L800 601L750 601L750 601L700 601L700 601L650 601L650 601L600 601L600 601L550 601L550 601L500 601L500 601L450 601L450 601L400 601L400 601L350 601L350 601L300 601L300 601L250 601L250 601L200 601L200 601L150 601L150 601L100 601L100 601L50 601L50 601L0 601Z" fill="#333333"></path></svg>