<svg id="visual" viewBox="0 0 900 600" width="900" height="600" xmlns="http://www.w3.org/2000/svg" xmlns:xlink="http://www.w3.org/1999/xlink" version="1.1"><path d="M0 499L50 499L50 552L100 552L100 507L150 507L150 495L200 495L200 476L250 476L250 514L300 514L300 435L350 435L350 515L400 515L400 410L450 410L450 495L500 495L500 549L550 549L550 496L600 496L600 447L650 447L650 523L700 523L700 447L750 447L750 542L800 542L800 456L850 456L850 420L900 420L900 557L900 601L900 601L850 601L850 601L800 601L800 601L750 601L750 601L700 601L700 601L650 601L650 601L600 601L600 601L550 601L550 601L500 601L500 601L450 601L450 601L400 601L400 601L350 601L350 601L300 601L300 601L250 601L250 601L200 601L200 601L150 601L150 601L100 601L100 601L50 601L50 601L0 601Z" fill="#404040"></path></svg>