<svg id="visual" viewBox="0 0 900 600" width="900" height="600" xmlns="http://www.w3.org/2000/svg" xmlns:xlink="http://www.w3.org/1999/xlink" version="1.1"><path d="M0 173L50 173L50 370L100 370L100 480L150 480L150 198L200 198L200 204L250 204L250 193L300 193L300 299L350 299L350 174L400 174L400 425L450 425L450 435L500 435L500 331L550 331L550 166L600 166L600 225L650 225L650 380L700 380L700 489L750 489L750 372L800 372L800 387L850 387L850 485L900 485L900 211L900 601L900 601L850 601L850 601L800 601L800 601L750 601L750 601L700 601L700 601L650 601L650 601L600 601L600 601L550 601L550 601L500 601L500 601L450 601L450 601L400 601L400 601L350 601L350 601L300 601L300 601L250 601L250 601L200 601L200 601L150 601L150 601L100 601L100 601L50 601L50 601L0 601Z" fill="#262626   "></path></svg>